<?xml version="1.0" encoding="utf-8"?><svg xmlns="http://www.w3.org/2000/svg" xmlns:xlink="http://www.w3.org/1999/xlink"><symbol viewBox="0 0 10 16" id="arrow" xmlns="http://www.w3.org/2000/svg"><path fill-rule="evenodd" clip-rule="evenodd" d="M9.61.39c.52.521.52 1.365 0 1.886L3.885 8l5.723 5.724a1.333 1.333 0 01-1.885 1.886L1.057 8.943a1.333 1.333 0 010-1.886L7.724.391a1.332 1.332 0 011.885 0z"/></symbol><symbol viewBox="0 0 16 16" id="close" xmlns="http://www.w3.org/2000/svg"><path fill-rule="evenodd" clip-rule="evenodd" d="M.39.39a1.335 1.335 0 011.886 0L8 6.115 13.724.391a1.333 1.333 0 111.886 1.885L9.886 8l5.724 5.724a1.333 1.333 0 11-1.886 1.886L8 9.886 2.276 15.61a1.333 1.333 0 01-1.885-1.886L6.114 8 .391 2.276a1.333 1.333 0 010-1.885z"/></symbol><symbol viewBox="0 0 12 8" id="down" xmlns="http://www.w3.org/2000/svg"><path d="M1 1.5l5 5 5-5"/></symbol><symbol viewBox="0 0 12 12" id="edit" xmlns="http://www.w3.org/2000/svg"><path fill-rule="evenodd" clip-rule="evenodd" d="M9.348 2.777a.447.447 0 00-.632 0l-5.09 5.091-.237.945.945-.236 5.091-5.09a.447.447 0 000-.633l-.077-.077zm-1.264-.632a1.34 1.34 0 011.897 0l.076.077a1.341 1.341 0 010 1.896L4.88 9.297a.447.447 0 01-.208.117l-1.788.447a.447.447 0 01-.542-.542l.447-1.788c.02-.078.06-.15.118-.207l5.178-5.179z"/><path fill-rule="evenodd" clip-rule="evenodd" d="M7.375 2.854a.447.447 0 01.633 0l1.34 1.341a.447.447 0 01-.632.632l-1.34-1.34a.447.447 0 010-.633zM6.35 9.427c0-.246.2-.447.448-.447h3.575a.447.447 0 110 .894H6.798a.447.447 0 01-.447-.447z"/></symbol><symbol viewBox="0 0 16 15" id="edit_custom" xmlns="http://www.w3.org/2000/svg"><path fill-rule="evenodd" clip-rule="evenodd" d="M12.81 2.054a.792.792 0 00-1.12 0l-9.017 9.018-.418 1.673 1.674-.418 9.017-9.017a.792.792 0 000-1.12l-.136-.136zM10.57.934a2.375 2.375 0 013.36 0l.135.137a2.375 2.375 0 010 3.358l-9.172 9.172a.791.791 0 01-.368.209l-3.165.79a.792.792 0 01-.96-.96l.791-3.166a.791.791 0 01.209-.368L10.57.935zM7.5 13.833c0-.437.354-.792.792-.792h6.333a.792.792 0 110 1.584H8.292a.792.792 0 01-.792-.792z"/></symbol><symbol viewBox="0 0 18 25" id="finish" xmlns="http://www.w3.org/2000/svg"><path fill-rule="evenodd" clip-rule="evenodd" d="M17.216 14.185a1.23 1.23 0 01-1.047.584H2.631v8.616a1.23 1.23 0 01-2.462 0V1.23a1.23 1.23 0 112.462 0v1.23h13.538a1.23 1.23 0 011.101 1.782l-2.186 4.372 2.186 4.373c.19.382.17.835-.054 1.197zM2.631 4.923v7.385h11.547l-1.571-3.142a1.23 1.23 0 010-1.101l1.57-3.142H2.632z"/></symbol><symbol viewBox="0 0 3 8" id="notice" xmlns="http://www.w3.org/2000/svg"><path d="M2.3 0a.678.678 0 00-.495.22.778.778 0 00-.205.53c0 .199.073.39.205.53.131.14.31.22.495.22a.678.678 0 00.495-.22A.778.778 0 003 .75a.778.778 0 00-.205-.53A.678.678 0 002.3 0zm-.168 2.384C1.576 2.434.059 3.73.059 3.73c-.093.075-.065.07.01.21.074.135.065.145.153.08.094-.065.248-.17.505-.34.99-.68.158.89-.266 3.534-.168 1.31.933.635 1.218.435.28-.195 1.032-.75 1.106-.805.103-.075.028-.135-.051-.26-.056-.085-.112-.025-.112-.025-.304.215-.859.665-.934.38-.088-.285.481-2.24.794-3.584.051-.32.191-1.02-.35-.97z"/></symbol><symbol viewBox="0 0 20 20" id="plus" xmlns="http://www.w3.org/2000/svg"><path fill-rule="evenodd" clip-rule="evenodd" d="M10 2a8 8 0 100 16 8 8 0 000-16zM0 10C0 4.477 4.477 0 10 0s10 4.477 10 10-4.477 10-10 10S0 15.523 0 10z"/><path fill-rule="evenodd" clip-rule="evenodd" d="M10 6.001a1 1 0 011 1v6a1 1 0 11-2 0v-6a1 1 0 011-1z"/><path fill-rule="evenodd" clip-rule="evenodd" d="M6 10.001a1 1 0 011-1h6a1 1 0 110 2H7a1 1 0 01-1-1z"/></symbol><symbol viewBox="0 0 20 21" id="search" xmlns="http://www.w3.org/2000/svg"><path fill-rule="evenodd" clip-rule="evenodd" d="M9 2.5a7 7 0 100 14 7 7 0 000-14zm-9 7a9 9 0 1116.032 5.618l3.675 3.675a1 1 0 01-1.414 1.414l-3.675-3.675A9 9 0 010 9.5z"/></symbol><symbol viewBox="0 0 17 17" id="tree" xmlns="http://www.w3.org/2000/svg"><g clip-path="url(#jclip0_822_24666)"><path d="M17 10c0-.953-.493-1.831-1.32-2.535l-.003-.002C15.44 4.963 13.215 3 10.5 3 7.785 3 5.559 4.962 5.323 7.463c0 0-.002 0-.003.002C4.493 8.169 4 9.047 4 10c0 2.178 2.566 3.968 5.85 4.179v.721c0 .7-1.184 1.338-1.184 1.338a.156.156 0 00-.069.082.17.17 0 00-.002.112S8.794 17 9.2 17c.406 0 .73-.35 1.543-.35s1.585.302 1.585.302a.208.208 0 00.214-.05l.466-.503c.051-.054.038-.12-.03-.148 0 0-1.177-.476-1.177-1.351v-.785C14.767 13.727 17 12.032 17 10zM5.3 10c0-.713.5-1.361 1.314-1.856-.006-.08-.014-.162-.014-.244 0-1.933 1.747-3.5 3.9-3.5 2.153 0 3.9 1.567 3.9 3.5 0 .082-.008.163-.014.244C15.201 8.64 15.7 9.287 15.7 10c0 1.305-1.658 2.397-3.9 2.708v-.467a.385.385 0 01.095-.236l1.191-1.208a.388.388 0 00.095-.236v-.596c0-.077-.05-.108-.112-.07l-1.156.734c-.062.039-.112.008-.112-.07V8.04c0-.077-.056-.12-.124-.096l-1.704.612a.196.196 0 00-.086.072.219.219 0 00-.036.112v1.82c0 .077-.052.11-.115.075L8.42 9.89a.176.176 0 00-.206.034l-.223.24a.131.131 0 00-.036.096.138.138 0 00.042.094l1.755 1.653a.365.365 0 01.098.232v.536C7.286 12.603 5.3 11.428 5.3 10z"/><path d="M4.25 1a.75.75 0 00-1.5 0h1.5zm-1.5 5a.75.75 0 001.5 0h-1.5zM6 4.25a.75.75 0 000-1.5v1.5zm-5-1.5a.75.75 0 000 1.5v-1.5zM2.75 1v2.5h1.5V1h-1.5zm0 2.5V6h1.5V3.5h-1.5zm.75.75H6v-1.5H3.5v1.5zM6 2.75H1v1.5h5v-1.5z"/></g><defs><clipPath id="jclip0_822_24666"><path d="M0 0h17v17H0z"/></clipPath></defs></symbol></svg>